<svg xmlns="http://www.w3.org/2000/svg" xmlns:xlink="http://www.w3.org/1999/xlink" width="1920" zoomAndPan="magnify" viewBox="0 0 1440 809.999993" height="1080" preserveAspectRatio="xMidYMid meet" version="1.0"><defs><g/><clipPath id="31a9f698b0"><path d="M 487 175.316406 L 969.136719 175.316406 L 969.136719 272.765625 L 487 272.765625 Z M 487 175.316406 " clip-rule="nonzero"/></clipPath><clipPath id="871df3da9d"><path d="M 525.445312 175.695312 L 930.792969 175.695312 C 951.917969 175.695312 969.042969 192.820312 969.042969 213.945312 L 969.042969 234.515625 C 969.042969 255.640625 951.917969 272.765625 930.792969 272.765625 L 525.445312 272.765625 C 504.320312 272.765625 487.195312 255.640625 487.195312 234.515625 L 487.195312 213.945312 C 487.195312 192.820312 504.320312 175.695312 525.445312 175.695312 Z M 525.445312 175.695312 " clip-rule="nonzero"/></clipPath><clipPath id="2daa256292"><path d="M 487 356.085938 L 969.136719 356.085938 L 969.136719 453.535156 L 487 453.535156 Z M 487 356.085938 " clip-rule="nonzero"/></clipPath><clipPath id="86c46a5ede"><path d="M 525.445312 356.464844 L 930.792969 356.464844 C 951.917969 356.464844 969.042969 373.589844 969.042969 394.714844 L 969.042969 415.285156 C 969.042969 436.410156 951.917969 453.535156 930.792969 453.535156 L 525.445312 453.535156 C 504.320312 453.535156 487.195312 436.410156 487.195312 415.285156 L 487.195312 394.714844 C 487.195312 373.589844 504.320312 356.464844 525.445312 356.464844 Z M 525.445312 356.464844 " clip-rule="nonzero"/></clipPath><clipPath id="8a034df5ea"><path d="M 487 537 L 969.136719 537 L 969.136719 634.304688 L 487 634.304688 Z M 487 537 " clip-rule="nonzero"/></clipPath><clipPath id="9181cd9421"><path d="M 525.445312 537.234375 L 930.792969 537.234375 C 951.917969 537.234375 969.042969 554.359375 969.042969 575.484375 L 969.042969 596.054688 C 969.042969 617.179688 951.917969 634.304688 930.792969 634.304688 L 525.445312 634.304688 C 504.320312 634.304688 487.195312 617.179688 487.195312 596.054688 L 487.195312 575.484375 C 487.195312 554.359375 504.320312 537.234375 525.445312 537.234375 Z M 525.445312 537.234375 " clip-rule="nonzero"/></clipPath></defs><g clip-path="url(#31a9f698b0)"><g clip-path="url(#871df3da9d)"><path fill="#ffffff" d="M 487.195312 175.695312 L 969.136719 175.695312 L 969.136719 272.765625 L 487.195312 272.765625 Z M 487.195312 175.695312 " fill-opacity="1" fill-rule="nonzero"/></g></g><g fill="#ffffff" fill-opacity="1"><g transform="translate(375.948096, 261.220209)"><g><path d="M 25.265625 0 L 46.34375 0 L 46.34375 -94.578125 L 30.265625 -94.578125 L 28.644531 -89.308594 C 26.480469 -82.28125 22.429688 -79.714844 13.511719 -79.714844 L 3.917969 -79.714844 L 3.917969 -60.933594 L 25.265625 -60.933594 Z M 25.265625 0 "/></g></g></g><g fill="#ffffff" fill-opacity="1"><g transform="translate(361.377557, 450.187905)"><g><path d="M 6.890625 0 L 77.824219 0 L 77.824219 -18.78125 L 40.804688 -18.78125 L 58.636719 -34.320312 C 71.472656 -44.992188 76.066406 -55.53125 76.066406 -66.070312 C 76.066406 -84.445312 62.152344 -96.46875 42.019531 -96.46875 C 21.210938 -96.46875 8.242188 -83.90625 7.703125 -62.828125 L 27.292969 -62.828125 C 27.699219 -72.554688 33.101562 -78.09375 41.613281 -78.09375 C 49.855469 -78.09375 55.394531 -72.824219 55.394531 -65.125 C 55.394531 -59.3125 52.289062 -54.316406 45.9375 -48.640625 L 6.890625 -15.132812 Z M 6.890625 0 "/></g></g></g><g fill="#ffffff" fill-opacity="1"><g transform="translate(362.78968, 639.155601)"><g><path d="M 41.75 1.890625 C 62.960938 1.890625 76.742188 -10 76.742188 -28.507812 C 76.742188 -44.179688 66.476562 -55.53125 50.800781 -57.964844 L 72.824219 -79.984375 L 72.824219 -94.578125 L 8.375 -94.578125 L 8.375 -76.066406 L 44.855469 -76.066406 L 24.859375 -55.800781 L 24.859375 -43.234375 L 41.480469 -43.234375 C 50.398438 -43.234375 56.207031 -38.101562 56.207031 -30.128906 C 56.207031 -22.160156 50.398438 -17.023438 41.480469 -17.023438 C 32.695312 -17.023438 27.023438 -21.886719 26.617188 -29.589844 L 6.078125 -29.589844 C 6.890625 -10.132812 20.402344 1.890625 41.75 1.890625 Z M 41.75 1.890625 "/></g></g></g><g clip-path="url(#2daa256292)"><g clip-path="url(#86c46a5ede)"><path fill="#ffffff" d="M 487.195312 356.464844 L 969.136719 356.464844 L 969.136719 453.535156 L 487.195312 453.535156 Z M 487.195312 356.464844 " fill-opacity="1" fill-rule="nonzero"/></g></g><g clip-path="url(#8a034df5ea)"><g clip-path="url(#9181cd9421)"><path fill="#ffffff" d="M 487.195312 537.234375 L 969.136719 537.234375 L 969.136719 634.304688 L 487.195312 634.304688 Z M 487.195312 537.234375 " fill-opacity="1" fill-rule="nonzero"/></g></g></svg>